<svg xmlns="http://www.w3.org/2000/svg" width="11" height="18.986" viewBox="0 0 11 18.986"><defs><style>.a{fill:#fff;}</style></defs><path class="a" d="M296.951,141.8a9.171,9.171,0,0,0,2.845-1.179,1.437,1.437,0,0,0-1.53-2.433,6.223,6.223,0,0,1-6.6,0,1.437,1.437,0,0,0-1.53,2.433,9.171,9.171,0,0,0,2.845,1.179l-2.737,2.739a1.435,1.435,0,0,0,2.03,2.03l2.692-2.692,2.692,2.692a1.435,1.435,0,1,0,2.03-2.03l-2.739-2.739m-1.983-10.924a2.028,2.028,0,1,1-2.03,2.03A2.031,2.031,0,0,1,294.969,130.873Zm0,6.927a4.9,4.9,0,1,0-4.9-4.9A4.9,4.9,0,0,0,294.969,137.8Z" transform="translate(-289.467 -128)"/></svg>