<svg xmlns="http://www.w3.org/2000/svg" width="14" height="14" viewBox="0 0 14 14"><defs><style>.a{fill:#38a33c;fill-rule:evenodd;}</style></defs><path class="a" d="M598.648,331.322a4.666,4.666,0,0,0-3.326,8.03,4.666,4.666,0,0,0,8.03,3.326,4.666,4.666,0,0,0,3.326-8.03,4.666,4.666,0,0,0-8.03-3.326Zm-.009,1.505a.7.7,0,0,0,1.08-.447,1.327,1.327,0,0,1,2.562,0,.7.7,0,0,0,1.08.447,1.327,1.327,0,0,1,1.812,1.812.7.7,0,0,0,.447,1.08,1.327,1.327,0,0,1,0,2.562.7.7,0,0,0-.447,1.08,1.327,1.327,0,0,1-1.812,1.812.7.7,0,0,0-1.08.447,1.327,1.327,0,0,1-2.562,0,.7.7,0,0,0-1.08-.447,1.327,1.327,0,0,1-1.812-1.812.7.7,0,0,0-.447-1.08,1.327,1.327,0,0,1,0-2.562.7.7,0,0,0,.447-1.08,1.327,1.327,0,0,1,1.812-1.812Zm-.234,4.666,1.415,1.415a.7.7,0,0,0,.99,0l2.785-2.785a.7.7,0,0,0-.99-.99l-2.29,2.29-.921-.921a.7.7,0,0,0-.99.99Z" transform="translate(-594 -330)"/></svg>